<?xml version="1.0" encoding="UTF-8" standalone="no"?>
<!DOCTYPE svg PUBLIC "-//W3C//DTD SVG 1.1//EN"
 "http://www.w3.org/Graphics/SVG/1.1/DTD/svg11.dtd">
<!-- Generated by graphviz version 2.40.1 (20161225.0304)
 -->
<!-- Title: Matrix::count Pages: 1 -->
<svg width="233pt" height="66pt"
 viewBox="0.00 0.00 233.00 66.00" xmlns="http://www.w3.org/2000/svg" xmlns:xlink="http://www.w3.org/1999/xlink">
<g id="graph0" class="graph" transform="scale(1 1) rotate(0) translate(4 62)">
<title>Matrix::count</title>
<!-- Node46 -->
<g id="node1" class="node">
<title>Node46</title>
<polygon fill="#bfbfbf" stroke="#000000" points="0,-19.5 0,-38.5 80,-38.5 80,-19.5 0,-19.5"/>
<text text-anchor="middle" x="40" y="-26.5" font-family="Helvetica,sans-Serif" font-size="10.00" fill="#000000">Matrix::count</text>
</g>
<!-- Node47 -->
<g id="node2" class="node">
<title>Node47</title>
<g id="a_node2"><a xlink:href="classMatrix.html#a92786d56abd92d0ea72dc3f481252133" target="_top" xlink:title="Sorts elements of the matrix inplace. ">
<polygon fill="none" stroke="#000000" points="134.5,-38.5 134.5,-57.5 206.5,-57.5 206.5,-38.5 134.5,-38.5"/>
<text text-anchor="middle" x="170.5" y="-45.5" font-family="Helvetica,sans-Serif" font-size="10.00" fill="#000000">Matrix::sort</text>
</a>
</g>
</g>
<!-- Node46&#45;&gt;Node47 -->
<g id="edge1" class="edge">
<title>Node46&#45;&gt;Node47</title>
<path fill="none" stroke="#191970" d="M80.2191,-34.8557C94.0798,-36.8737 109.7165,-39.1503 124.0342,-41.2349"/>
<polygon fill="#191970" stroke="#191970" points="123.7824,-44.735 134.1823,-42.7124 124.791,-37.8081 123.7824,-44.735"/>
</g>
<!-- Node48 -->
<g id="node3" class="node">
<title>Node48</title>
<g id="a_node3"><a xlink:href="classMatrix.html#ac28a0846518ca104d36de2242bf1cc6e" target="_top" xlink:title="Adds a column at the end of the matrix. ">
<polygon fill="none" stroke="#000000" points="116,-.5 116,-19.5 225,-19.5 225,-.5 116,-.5"/>
<text text-anchor="middle" x="170.5" y="-7.5" font-family="Helvetica,sans-Serif" font-size="10.00" fill="#000000">Matrix::addColumn</text>
</a>
</g>
</g>
<!-- Node46&#45;&gt;Node48 -->
<g id="edge2" class="edge">
<title>Node46&#45;&gt;Node48</title>
<path fill="none" stroke="#191970" d="M80.2191,-23.1443C88.2933,-21.9688 96.9701,-20.7055 105.6379,-19.4435"/>
<polygon fill="#191970" stroke="#191970" points="106.3808,-22.8724 115.7722,-17.968 105.3722,-15.9454 106.3808,-22.8724"/>
</g>
</g>
</svg>
