<?xml version="1.0" encoding="UTF-8" standalone="no"?>
<!DOCTYPE svg PUBLIC "-//W3C//DTD SVG 1.1//EN"
 "http://www.w3.org/Graphics/SVG/1.1/DTD/svg11.dtd">
<!-- Generated by graphviz version 2.40.1 (20161225.0304)
 -->
<!-- Title: Matrix::mean Pages: 1 -->
<svg width="350pt" height="66pt"
 viewBox="0.00 0.00 350.00 66.00" xmlns="http://www.w3.org/2000/svg" xmlns:xlink="http://www.w3.org/1999/xlink">
<g id="graph0" class="graph" transform="scale(1 1) rotate(0) translate(4 62)">
<title>Matrix::mean</title>
<!-- Node117 -->
<g id="node1" class="node">
<title>Node117</title>
<polygon fill="#bfbfbf" stroke="#000000" points="0,-19.5 0,-38.5 81,-38.5 81,-19.5 0,-19.5"/>
<text text-anchor="middle" x="40.5" y="-26.5" font-family="Helvetica,sans-Serif" font-size="10.00" fill="#000000">Matrix::mean</text>
</g>
<!-- Node118 -->
<g id="node2" class="node">
<title>Node118</title>
<g id="a_node2"><a xlink:href="classMatrix.html#a405b443e7b0a3be4f36d7d61b7b94798" target="_top" xlink:title="Counts occurrences of elements in a matrix. ">
<polygon fill="none" stroke="#000000" points="117,-19.5 117,-38.5 197,-38.5 197,-19.5 117,-19.5"/>
<text text-anchor="middle" x="157" y="-26.5" font-family="Helvetica,sans-Serif" font-size="10.00" fill="#000000">Matrix::count</text>
</a>
</g>
</g>
<!-- Node117&#45;&gt;Node118 -->
<g id="edge1" class="edge">
<title>Node117&#45;&gt;Node118</title>
<path fill="none" stroke="#191970" d="M81.246,-29C89.4562,-29 98.1778,-29 106.6705,-29"/>
<polygon fill="#191970" stroke="#191970" points="106.8666,-32.5001 116.8665,-29 106.8665,-25.5001 106.8666,-32.5001"/>
</g>
<!-- Node119 -->
<g id="node3" class="node">
<title>Node119</title>
<g id="a_node3"><a xlink:href="classMatrix.html#a92786d56abd92d0ea72dc3f481252133" target="_top" xlink:title="Sorts elements of the matrix inplace. ">
<polygon fill="none" stroke="#000000" points="251.5,-38.5 251.5,-57.5 323.5,-57.5 323.5,-38.5 251.5,-38.5"/>
<text text-anchor="middle" x="287.5" y="-45.5" font-family="Helvetica,sans-Serif" font-size="10.00" fill="#000000">Matrix::sort</text>
</a>
</g>
</g>
<!-- Node118&#45;&gt;Node119 -->
<g id="edge2" class="edge">
<title>Node118&#45;&gt;Node119</title>
<path fill="none" stroke="#191970" d="M197.2191,-34.8557C211.0798,-36.8737 226.7165,-39.1503 241.0342,-41.2349"/>
<polygon fill="#191970" stroke="#191970" points="240.7824,-44.735 251.1823,-42.7124 241.791,-37.8081 240.7824,-44.735"/>
</g>
<!-- Node120 -->
<g id="node4" class="node">
<title>Node120</title>
<g id="a_node4"><a xlink:href="classMatrix.html#ac28a0846518ca104d36de2242bf1cc6e" target="_top" xlink:title="Adds a column at the end of the matrix. ">
<polygon fill="none" stroke="#000000" points="233,-.5 233,-19.5 342,-19.5 342,-.5 233,-.5"/>
<text text-anchor="middle" x="287.5" y="-7.5" font-family="Helvetica,sans-Serif" font-size="10.00" fill="#000000">Matrix::addColumn</text>
</a>
</g>
</g>
<!-- Node118&#45;&gt;Node120 -->
<g id="edge3" class="edge">
<title>Node118&#45;&gt;Node120</title>
<path fill="none" stroke="#191970" d="M197.2191,-23.1443C205.2933,-21.9688 213.9701,-20.7055 222.6379,-19.4435"/>
<polygon fill="#191970" stroke="#191970" points="223.3808,-22.8724 232.7722,-17.968 222.3722,-15.9454 223.3808,-22.8724"/>
</g>
</g>
</svg>
