<?xml version="1.0" encoding="UTF-8" standalone="no"?>
<!DOCTYPE svg PUBLIC "-//W3C//DTD SVG 1.1//EN"
 "http://www.w3.org/Graphics/SVG/1.1/DTD/svg11.dtd">
<!-- Generated by graphviz version 2.40.1 (20161225.0304)
 -->
<!-- Title: Matrix::nCols Pages: 1 -->
<svg width="233pt" height="66pt"
 viewBox="0.00 0.00 233.00 66.00" xmlns="http://www.w3.org/2000/svg" xmlns:xlink="http://www.w3.org/1999/xlink">
<g id="graph0" class="graph" transform="scale(1 1) rotate(0) translate(4 62)">
<title>Matrix::nCols</title>
<!-- Node129 -->
<g id="node1" class="node">
<title>Node129</title>
<polygon fill="#bfbfbf" stroke="#000000" points="0,-19.5 0,-38.5 80,-38.5 80,-19.5 0,-19.5"/>
<text text-anchor="middle" x="40" y="-26.5" font-family="Helvetica,sans-Serif" font-size="10.00" fill="#000000">Matrix::nCols</text>
</g>
<!-- Node130 -->
<g id="node2" class="node">
<title>Node130</title>
<g id="a_node2"><a xlink:href="classMatrix.html#abf42ed73264b8442c29de0d2197ce882" target="_top" xlink:title="Adds a column to the matrix at the given position. ">
<polygon fill="none" stroke="#000000" points="116,-38.5 116,-57.5 225,-57.5 225,-38.5 116,-38.5"/>
<text text-anchor="middle" x="170.5" y="-45.5" font-family="Helvetica,sans-Serif" font-size="10.00" fill="#000000">Matrix::addColumn</text>
</a>
</g>
</g>
<!-- Node129&#45;&gt;Node130 -->
<g id="edge1" class="edge">
<title>Node129&#45;&gt;Node130</title>
<path fill="none" stroke="#191970" d="M90.2134,-36.3108C98.5814,-37.5291 107.2984,-38.7982 115.7722,-40.032"/>
<polygon fill="#191970" stroke="#191970" points="90.6191,-32.833 80.2191,-34.8557 89.6105,-39.76 90.6191,-32.833"/>
</g>
<!-- Node131 -->
<g id="node3" class="node">
<title>Node131</title>
<g id="a_node3"><a xlink:href="classMatrix.html#ab734c3f274f16439a0075b09722768b0" target="_top" xlink:title="Selects a subset of either columns or rows of the matrix. ">
<polygon fill="none" stroke="#000000" points="132,-.5 132,-19.5 209,-19.5 209,-.5 132,-.5"/>
<text text-anchor="middle" x="170.5" y="-7.5" font-family="Helvetica,sans-Serif" font-size="10.00" fill="#000000">Matrix::filter</text>
</a>
</g>
</g>
<!-- Node129&#45;&gt;Node131 -->
<g id="edge2" class="edge">
<title>Node129&#45;&gt;Node131</title>
<path fill="none" stroke="#191970" d="M90.1215,-21.7026C104.0088,-19.6807 118.8636,-17.5179 131.9772,-15.6087"/>
<polygon fill="#191970" stroke="#191970" points="89.6105,-18.24 80.2191,-23.1443 90.6191,-25.167 89.6105,-18.24"/>
</g>
</g>
</svg>
