<?xml version="1.0" encoding="UTF-8" standalone="no"?>
<!DOCTYPE svg PUBLIC "-//W3C//DTD SVG 1.1//EN"
 "http://www.w3.org/Graphics/SVG/1.1/DTD/svg11.dtd">
<!-- Generated by graphviz version 2.40.1 (20161225.0304)
 -->
<!-- Title: Matrix::WithinClassScatter Pages: 1 -->
<svg width="414pt" height="104pt"
 viewBox="0.00 0.00 414.00 104.00" xmlns="http://www.w3.org/2000/svg" xmlns:xlink="http://www.w3.org/1999/xlink">
<g id="graph0" class="graph" transform="scale(1 1) rotate(0) translate(4 100)">
<title>Matrix::WithinClassScatter</title>
<!-- Node228 -->
<g id="node1" class="node">
<title>Node228</title>
<polygon fill="#bfbfbf" stroke="#000000" points="0,-38.5 0,-57.5 146,-57.5 146,-38.5 0,-38.5"/>
<text text-anchor="middle" x="73" y="-45.5" font-family="Helvetica,sans-Serif" font-size="10.00" fill="#000000">Matrix::WithinClassScatter</text>
</g>
<!-- Node229 -->
<g id="node2" class="node">
<title>Node229</title>
<g id="a_node2"><a xlink:href="classMatrix.html#adfeed67f10fb811c2fc268d8d4a8df60" target="_top" xlink:title="Returns only unique values from the matrix. ">
<polygon fill="none" stroke="#000000" points="182.5,-76.5 182.5,-95.5 268.5,-95.5 268.5,-76.5 182.5,-76.5"/>
<text text-anchor="middle" x="225.5" y="-83.5" font-family="Helvetica,sans-Serif" font-size="10.00" fill="#000000">Matrix::unique</text>
</a>
</g>
</g>
<!-- Node228&#45;&gt;Node229 -->
<g id="edge1" class="edge">
<title>Node228&#45;&gt;Node229</title>
<path fill="none" stroke="#191970" d="M111.4822,-57.589C131.5156,-62.5809 156.2023,-68.7324 177.476,-74.0334"/>
<polygon fill="#191970" stroke="#191970" points="176.745,-77.4582 187.2945,-76.4799 178.4375,-70.6659 176.745,-77.4582"/>
</g>
<!-- Node230 -->
<g id="node3" class="node">
<title>Node230</title>
<g id="a_node3"><a xlink:href="classMatrix.html#ad654d350a6c4831500016c403756cb88" target="_top" xlink:title="Matrix::nRows">
<polygon fill="none" stroke="#000000" points="182.5,-38.5 182.5,-57.5 268.5,-57.5 268.5,-38.5 182.5,-38.5"/>
<text text-anchor="middle" x="225.5" y="-45.5" font-family="Helvetica,sans-Serif" font-size="10.00" fill="#000000">Matrix::nRows</text>
</a>
</g>
</g>
<!-- Node228&#45;&gt;Node230 -->
<g id="edge2" class="edge">
<title>Node228&#45;&gt;Node230</title>
<path fill="none" stroke="#191970" d="M146.1233,-48C154.9273,-48 163.7869,-48 172.2317,-48"/>
<polygon fill="#191970" stroke="#191970" points="172.2951,-51.5001 182.295,-48 172.295,-44.5001 172.2951,-51.5001"/>
</g>
<!-- Node231 -->
<g id="node4" class="node">
<title>Node231</title>
<g id="a_node4"><a xlink:href="classMatrix.html#aaea066fd6a3972580cb7f9ccc3be5f38" target="_top" xlink:title="Calculates the scatter matrix. ">
<polygon fill="none" stroke="#000000" points="182,-.5 182,-19.5 269,-19.5 269,-.5 182,-.5"/>
<text text-anchor="middle" x="225.5" y="-7.5" font-family="Helvetica,sans-Serif" font-size="10.00" fill="#000000">Matrix::scatter</text>
</a>
</g>
</g>
<!-- Node228&#45;&gt;Node231 -->
<g id="edge3" class="edge">
<title>Node228&#45;&gt;Node231</title>
<path fill="none" stroke="#191970" d="M111.4822,-38.411C131.5156,-33.4191 156.2023,-27.2676 177.476,-21.9666"/>
<polygon fill="#191970" stroke="#191970" points="178.4375,-25.3341 187.2945,-19.5201 176.745,-18.5418 178.4375,-25.3341"/>
</g>
<!-- Node232 -->
<g id="node5" class="node">
<title>Node232</title>
<g id="a_node5"><a xlink:href="classMatrix.html#a210a51aab56f8f5a1abdafa4ae0068b8" target="_top" xlink:title="Returns the transpose of a matrix. ">
<polygon fill="none" stroke="#000000" points="305,-.5 305,-19.5 406,-19.5 406,-.5 305,-.5"/>
<text text-anchor="middle" x="355.5" y="-7.5" font-family="Helvetica,sans-Serif" font-size="10.00" fill="#000000">Matrix::transpose</text>
</a>
</g>
</g>
<!-- Node231&#45;&gt;Node232 -->
<g id="edge4" class="edge">
<title>Node231&#45;&gt;Node232</title>
<path fill="none" stroke="#191970" d="M269.1498,-10C277.2256,-10 285.7961,-10 294.2804,-10"/>
<polygon fill="#191970" stroke="#191970" points="294.5476,-13.5001 304.5476,-10 294.5475,-6.5001 294.5476,-13.5001"/>
</g>
</g>
</svg>
