<?xml version="1.0" encoding="UTF-8" standalone="no"?>
<!DOCTYPE svg PUBLIC "-//W3C//DTD SVG 1.1//EN"
 "http://www.w3.org/Graphics/SVG/1.1/DTD/svg11.dtd">
<!-- Generated by graphviz version 2.40.1 (20161225.0304)
 -->
<!-- Title: Matrix::eigenSymmetric Pages: 1 -->
<svg width="279pt" height="66pt"
 viewBox="0.00 0.00 279.00 66.00" xmlns="http://www.w3.org/2000/svg" xmlns:xlink="http://www.w3.org/1999/xlink">
<g id="graph0" class="graph" transform="scale(1 1) rotate(0) translate(4 62)">
<title>Matrix::eigenSymmetric</title>
<!-- Node65 -->
<g id="node1" class="node">
<title>Node65</title>
<polygon fill="#bfbfbf" stroke="#000000" points="0,-19.5 0,-38.5 134,-38.5 134,-19.5 0,-19.5"/>
<text text-anchor="middle" x="67" y="-26.5" font-family="Helvetica,sans-Serif" font-size="10.00" fill="#000000">Matrix::eigenSymmetric</text>
</g>
<!-- Node66 -->
<g id="node2" class="node">
<title>Node66</title>
<g id="a_node2"><a xlink:href="classMatrix.html#a18fd808db3f9098a3732cd9d312f8da6" target="_top" xlink:title="Creates a square matrix with a fixed value on the diagonal. ">
<polygon fill="none" stroke="#000000" points="173,-38.5 173,-57.5 268,-57.5 268,-38.5 173,-38.5"/>
<text text-anchor="middle" x="220.5" y="-45.5" font-family="Helvetica,sans-Serif" font-size="10.00" fill="#000000">Matrix::diagonal</text>
</a>
</g>
</g>
<!-- Node65&#45;&gt;Node66 -->
<g id="edge1" class="edge">
<title>Node65&#45;&gt;Node66</title>
<path fill="none" stroke="#191970" d="M134.3273,-37.3337C143.6917,-38.4928 153.2461,-39.6754 162.4214,-40.8111"/>
<polygon fill="#191970" stroke="#191970" points="162.2351,-44.3147 172.5893,-42.0697 163.095,-37.3677 162.2351,-44.3147"/>
</g>
<!-- Node67 -->
<g id="node3" class="node">
<title>Node67</title>
<g id="a_node3"><a xlink:href="classMatrix.html#a210a51aab56f8f5a1abdafa4ae0068b8" target="_top" xlink:title="Returns the transpose of a matrix. ">
<polygon fill="none" stroke="#000000" points="170,-.5 170,-19.5 271,-19.5 271,-.5 170,-.5"/>
<text text-anchor="middle" x="220.5" y="-7.5" font-family="Helvetica,sans-Serif" font-size="10.00" fill="#000000">Matrix::transpose</text>
</a>
</g>
</g>
<!-- Node65&#45;&gt;Node67 -->
<g id="edge2" class="edge">
<title>Node65&#45;&gt;Node67</title>
<path fill="none" stroke="#191970" d="M134.3273,-20.6663C142.8031,-19.6172 151.4345,-18.5488 159.7997,-17.5134"/>
<polygon fill="#191970" stroke="#191970" points="160.3486,-20.9723 169.8429,-16.2703 159.4886,-14.0253 160.3486,-20.9723"/>
</g>
</g>
</svg>
