<?xml version="1.0" encoding="UTF-8" standalone="no"?>
<!DOCTYPE svg PUBLIC "-//W3C//DTD SVG 1.1//EN"
 "http://www.w3.org/Graphics/SVG/1.1/DTD/svg11.dtd">
<!-- Generated by graphviz version 2.40.1 (20161225.0304)
 -->
<!-- Title: Matrix::sort Pages: 1 -->
<svg width="313pt" height="28pt"
 viewBox="0.00 0.00 313.00 28.00" xmlns="http://www.w3.org/2000/svg" xmlns:xlink="http://www.w3.org/1999/xlink">
<g id="graph0" class="graph" transform="scale(1 1) rotate(0) translate(4 24)">
<title>Matrix::sort</title>
<!-- Node196 -->
<g id="node1" class="node">
<title>Node196</title>
<polygon fill="#bfbfbf" stroke="#000000" points="0,-.5 0,-19.5 72,-19.5 72,-.5 0,-.5"/>
<text text-anchor="middle" x="36" y="-7.5" font-family="Helvetica,sans-Serif" font-size="10.00" fill="#000000">Matrix::sort</text>
</g>
<!-- Node197 -->
<g id="node2" class="node">
<title>Node197</title>
<g id="a_node2"><a xlink:href="classMatrix.html#a405b443e7b0a3be4f36d7d61b7b94798" target="_top" xlink:title="Counts occurrences of elements in a matrix. ">
<polygon fill="none" stroke="#000000" points="108,-.5 108,-19.5 188,-19.5 188,-.5 108,-.5"/>
<text text-anchor="middle" x="148" y="-7.5" font-family="Helvetica,sans-Serif" font-size="10.00" fill="#000000">Matrix::count</text>
</a>
</g>
</g>
<!-- Node196&#45;&gt;Node197 -->
<g id="edge1" class="edge">
<title>Node196&#45;&gt;Node197</title>
<path fill="none" stroke="#191970" d="M82.1875,-10C90.6657,-10 99.4536,-10 107.741,-10"/>
<polygon fill="#191970" stroke="#191970" points="82.054,-6.5001 72.054,-10 82.054,-13.5001 82.054,-6.5001"/>
</g>
<!-- Node198 -->
<g id="node3" class="node">
<title>Node198</title>
<g id="a_node3"><a xlink:href="classMatrix.html#acaed37ff28cc308913f2b26fd5a48940" target="_top" xlink:title="Calculates means of a matrix, grouped by classes. ">
<polygon fill="none" stroke="#000000" points="224,-.5 224,-19.5 305,-19.5 305,-.5 224,-.5"/>
<text text-anchor="middle" x="264.5" y="-7.5" font-family="Helvetica,sans-Serif" font-size="10.00" fill="#000000">Matrix::mean</text>
</a>
</g>
</g>
<!-- Node197&#45;&gt;Node198 -->
<g id="edge2" class="edge">
<title>Node197&#45;&gt;Node198</title>
<path fill="none" stroke="#191970" d="M198.3544,-10C206.9027,-10 215.6822,-10 223.9379,-10"/>
<polygon fill="#191970" stroke="#191970" points="198.0927,-6.5001 188.0927,-10 198.0927,-13.5001 198.0927,-6.5001"/>
</g>
</g>
</svg>
