<?xml version="1.0" encoding="UTF-8" standalone="no"?>
<!DOCTYPE svg PUBLIC "-//W3C//DTD SVG 1.1//EN"
 "http://www.w3.org/Graphics/SVG/1.1/DTD/svg11.dtd">
<!-- Generated by graphviz version 2.40.1 (20161225.0304)
 -->
<!-- Title: Matrix::addColumn Pages: 1 -->
<svg width="239pt" height="66pt"
 viewBox="0.00 0.00 239.00 66.00" xmlns="http://www.w3.org/2000/svg" xmlns:xlink="http://www.w3.org/1999/xlink">
<g id="graph0" class="graph" transform="scale(1 1) rotate(0) translate(4 62)">
<title>Matrix::addColumn</title>
<!-- Node15 -->
<g id="node1" class="node">
<title>Node15</title>
<polygon fill="#bfbfbf" stroke="#000000" points="0,-19.5 0,-38.5 109,-38.5 109,-19.5 0,-19.5"/>
<text text-anchor="middle" x="54.5" y="-26.5" font-family="Helvetica,sans-Serif" font-size="10.00" fill="#000000">Matrix::addColumn</text>
</g>
<!-- Node16 -->
<g id="node2" class="node">
<title>Node16</title>
<g id="a_node2"><a xlink:href="classMatrix.html#ad654d350a6c4831500016c403756cb88" target="_top" xlink:title="Matrix::nRows">
<polygon fill="none" stroke="#000000" points="145,-38.5 145,-57.5 231,-57.5 231,-38.5 145,-38.5"/>
<text text-anchor="middle" x="188" y="-45.5" font-family="Helvetica,sans-Serif" font-size="10.00" fill="#000000">Matrix::nRows</text>
</a>
</g>
</g>
<!-- Node15&#45;&gt;Node16 -->
<g id="edge1" class="edge">
<title>Node15&#45;&gt;Node16</title>
<path fill="none" stroke="#191970" d="M109.1848,-36.7828C117.5804,-37.9777 126.2394,-39.2101 134.6065,-40.4009"/>
<polygon fill="#191970" stroke="#191970" points="134.237,-43.8835 144.6304,-41.8276 135.2234,-36.9534 134.237,-43.8835"/>
</g>
<!-- Node17 -->
<g id="node3" class="node">
<title>Node17</title>
<g id="a_node3"><a xlink:href="classMatrix.html#a978acd1635d3b39906fb359b64120eb1" target="_top" xlink:title="Matrix::nCols">
<polygon fill="none" stroke="#000000" points="148,-.5 148,-19.5 228,-19.5 228,-.5 148,-.5"/>
<text text-anchor="middle" x="188" y="-7.5" font-family="Helvetica,sans-Serif" font-size="10.00" fill="#000000">Matrix::nCols</text>
</a>
</g>
</g>
<!-- Node15&#45;&gt;Node17 -->
<g id="edge2" class="edge">
<title>Node15&#45;&gt;Node17</title>
<path fill="none" stroke="#191970" d="M109.1848,-21.2172C118.7032,-19.8625 128.5603,-18.4596 137.9467,-17.1237"/>
<polygon fill="#191970" stroke="#191970" points="138.5018,-20.58 147.9088,-15.7059 137.5154,-13.6499 138.5018,-20.58"/>
</g>
</g>
</svg>
