<?xml version="1.0" encoding="UTF-8" standalone="no"?>
<!DOCTYPE svg PUBLIC "-//W3C//DTD SVG 1.1//EN"
 "http://www.w3.org/Graphics/SVG/1.1/DTD/svg11.dtd">
<!-- Generated by graphviz version 2.40.1 (20161225.0304)
 -->
<!-- Title: Matrix::unique Pages: 1 -->
<svg width="287pt" height="66pt"
 viewBox="0.00 0.00 287.00 66.00" xmlns="http://www.w3.org/2000/svg" xmlns:xlink="http://www.w3.org/1999/xlink">
<g id="graph0" class="graph" transform="scale(1 1) rotate(0) translate(4 62)">
<title>Matrix::unique</title>
<!-- Node221 -->
<g id="node1" class="node">
<title>Node221</title>
<polygon fill="#bfbfbf" stroke="#000000" points="0,-19.5 0,-38.5 86,-38.5 86,-19.5 0,-19.5"/>
<text text-anchor="middle" x="43" y="-26.5" font-family="Helvetica,sans-Serif" font-size="10.00" fill="#000000">Matrix::unique</text>
</g>
<!-- Node222 -->
<g id="node2" class="node">
<title>Node222</title>
<g id="a_node2"><a xlink:href="classMatrix.html#a5fd175e88fc60e7adf403e5c8f0f5670" target="_top" xlink:title="Matrix::WithinClassScatter">
<polygon fill="none" stroke="#000000" points="127.5,-38.5 127.5,-57.5 273.5,-57.5 273.5,-38.5 127.5,-38.5"/>
<text text-anchor="middle" x="200.5" y="-45.5" font-family="Helvetica,sans-Serif" font-size="10.00" fill="#000000">Matrix::WithinClassScatter</text>
</a>
</g>
</g>
<!-- Node221&#45;&gt;Node222 -->
<g id="edge1" class="edge">
<title>Node221&#45;&gt;Node222</title>
<path fill="none" stroke="#191970" d="M96.1846,-35.4159C106.1651,-36.6199 116.7601,-37.898 127.2255,-39.1605"/>
<polygon fill="#191970" stroke="#191970" points="96.3848,-31.9148 86.0376,-34.1918 95.5464,-38.8644 96.3848,-31.9148"/>
</g>
<!-- Node223 -->
<g id="node3" class="node">
<title>Node223</title>
<g id="a_node3"><a xlink:href="classMatrix.html#aa494447ecb454d0486c8462fb2ba9741" target="_top" xlink:title="Matrix::BetweenClassScatter">
<polygon fill="none" stroke="#000000" points="122,-.5 122,-19.5 279,-19.5 279,-.5 122,-.5"/>
<text text-anchor="middle" x="200.5" y="-7.5" font-family="Helvetica,sans-Serif" font-size="10.00" fill="#000000">Matrix::BetweenClassScatter</text>
</a>
</g>
</g>
<!-- Node221&#45;&gt;Node223 -->
<g id="edge2" class="edge">
<title>Node221&#45;&gt;Node223</title>
<path fill="none" stroke="#191970" d="M96.2207,-22.5797C104.4614,-21.5856 113.1203,-20.541 121.7788,-19.4965"/>
<polygon fill="#191970" stroke="#191970" points="95.5464,-19.1356 86.0376,-23.8082 96.3848,-26.0852 95.5464,-19.1356"/>
</g>
</g>
</svg>
