<?xml version="1.0" encoding="UTF-8" standalone="no"?>
<!DOCTYPE svg PUBLIC "-//W3C//DTD SVG 1.1//EN"
 "http://www.w3.org/Graphics/SVG/1.1/DTD/svg11.dtd">
<!-- Generated by graphviz version 2.40.1 (20161225.0304)
 -->
<!-- Title: Matrix::nRows Pages: 1 -->
<svg width="287pt" height="180pt"
 viewBox="0.00 0.00 287.00 180.00" xmlns="http://www.w3.org/2000/svg" xmlns:xlink="http://www.w3.org/1999/xlink">
<g id="graph0" class="graph" transform="scale(1 1) rotate(0) translate(4 176)">
<title>Matrix::nRows</title>
<!-- Node135 -->
<g id="node1" class="node">
<title>Node135</title>
<polygon fill="#bfbfbf" stroke="#000000" points="0,-76.5 0,-95.5 86,-95.5 86,-76.5 0,-76.5"/>
<text text-anchor="middle" x="43" y="-83.5" font-family="Helvetica,sans-Serif" font-size="10.00" fill="#000000">Matrix::nRows</text>
</g>
<!-- Node136 -->
<g id="node2" class="node">
<title>Node136</title>
<g id="a_node2"><a xlink:href="classMatrix.html#a86232d13990243ef1dd1e7a514e446cc" target="_top" xlink:title="Sorts eigenvalues by magnitude, sorting their corresponding eigenvectors in te same order...">
<polygon fill="none" stroke="#000000" points="157,-152.5 157,-171.5 244,-171.5 244,-152.5 157,-152.5"/>
<text text-anchor="middle" x="200.5" y="-159.5" font-family="Helvetica,sans-Serif" font-size="10.00" fill="#000000">Matrix::eigsort</text>
</a>
</g>
</g>
<!-- Node135&#45;&gt;Node136 -->
<g id="edge1" class="edge">
<title>Node135&#45;&gt;Node136</title>
<path fill="none" stroke="#191970" d="M61.0222,-102.1582C76.2555,-115.0031 99.1842,-132.5017 122,-143 132.8275,-147.9821 145.119,-151.7504 156.7088,-154.5617"/>
<polygon fill="#191970" stroke="#191970" points="63.2563,-99.463 53.4006,-95.575 58.6805,-104.7605 63.2563,-99.463"/>
</g>
<!-- Node137 -->
<g id="node3" class="node">
<title>Node137</title>
<g id="a_node3"><a xlink:href="classMatrix.html#abf42ed73264b8442c29de0d2197ce882" target="_top" xlink:title="Adds a column to the matrix at the given position. ">
<polygon fill="none" stroke="#000000" points="146,-114.5 146,-133.5 255,-133.5 255,-114.5 146,-114.5"/>
<text text-anchor="middle" x="200.5" y="-121.5" font-family="Helvetica,sans-Serif" font-size="10.00" fill="#000000">Matrix::addColumn</text>
</a>
</g>
</g>
<!-- Node135&#45;&gt;Node137 -->
<g id="edge2" class="edge">
<title>Node135&#45;&gt;Node137</title>
<path fill="none" stroke="#191970" d="M92.6041,-97.968C114.6753,-103.2931 140.3027,-109.4762 161.0419,-114.4799"/>
<polygon fill="#191970" stroke="#191970" points="93.2859,-94.5321 82.7439,-95.589 91.6441,-101.3369 93.2859,-94.5321"/>
</g>
<!-- Node138 -->
<g id="node4" class="node">
<title>Node138</title>
<g id="a_node4"><a xlink:href="classMatrix.html#ab734c3f274f16439a0075b09722768b0" target="_top" xlink:title="Selects a subset of either columns or rows of the matrix. ">
<polygon fill="none" stroke="#000000" points="162,-76.5 162,-95.5 239,-95.5 239,-76.5 162,-76.5"/>
<text text-anchor="middle" x="200.5" y="-83.5" font-family="Helvetica,sans-Serif" font-size="10.00" fill="#000000">Matrix::filter</text>
</a>
</g>
</g>
<!-- Node135&#45;&gt;Node138 -->
<g id="edge3" class="edge">
<title>Node135&#45;&gt;Node138</title>
<path fill="none" stroke="#191970" d="M96.3197,-86C117.7934,-86 142.0931,-86 161.8199,-86"/>
<polygon fill="#191970" stroke="#191970" points="96.0376,-82.5001 86.0376,-86 96.0375,-89.5001 96.0376,-82.5001"/>
</g>
<!-- Node139 -->
<g id="node5" class="node">
<title>Node139</title>
<g id="a_node5"><a xlink:href="classMatrix.html#a5fd175e88fc60e7adf403e5c8f0f5670" target="_top" xlink:title="Matrix::WithinClassScatter">
<polygon fill="none" stroke="#000000" points="127.5,-38.5 127.5,-57.5 273.5,-57.5 273.5,-38.5 127.5,-38.5"/>
<text text-anchor="middle" x="200.5" y="-45.5" font-family="Helvetica,sans-Serif" font-size="10.00" fill="#000000">Matrix::WithinClassScatter</text>
</a>
</g>
</g>
<!-- Node135&#45;&gt;Node139 -->
<g id="edge4" class="edge">
<title>Node135&#45;&gt;Node139</title>
<path fill="none" stroke="#191970" d="M92.6041,-74.032C114.6753,-68.7069 140.3027,-62.5238 161.0419,-57.5201"/>
<polygon fill="#191970" stroke="#191970" points="91.6441,-70.6631 82.7439,-76.411 93.2859,-77.4679 91.6441,-70.6631"/>
</g>
<!-- Node140 -->
<g id="node6" class="node">
<title>Node140</title>
<g id="a_node6"><a xlink:href="classMatrix.html#aa494447ecb454d0486c8462fb2ba9741" target="_top" xlink:title="Matrix::BetweenClassScatter">
<polygon fill="none" stroke="#000000" points="122,-.5 122,-19.5 279,-19.5 279,-.5 122,-.5"/>
<text text-anchor="middle" x="200.5" y="-7.5" font-family="Helvetica,sans-Serif" font-size="10.00" fill="#000000">Matrix::BetweenClassScatter</text>
</a>
</g>
</g>
<!-- Node135&#45;&gt;Node140 -->
<g id="edge5" class="edge">
<title>Node135&#45;&gt;Node140</title>
<path fill="none" stroke="#191970" d="M61.0222,-69.8418C76.2555,-56.9969 99.1842,-39.4983 122,-29 130.2798,-25.1902 139.4158,-22.0902 148.4394,-19.5851"/>
<polygon fill="#191970" stroke="#191970" points="58.6805,-67.2395 53.4006,-76.425 63.2563,-72.537 58.6805,-67.2395"/>
</g>
</g>
</svg>
