<?xml version="1.0" encoding="UTF-8" standalone="no"?>
<!DOCTYPE svg PUBLIC "-//W3C//DTD SVG 1.1//EN"
 "http://www.w3.org/Graphics/SVG/1.1/DTD/svg11.dtd">
<!-- Generated by graphviz version 2.40.1 (20161225.0304)
 -->
<!-- Title: Matrix::filter Pages: 1 -->
<svg width="230pt" height="142pt"
 viewBox="0.00 0.00 230.00 142.00" xmlns="http://www.w3.org/2000/svg" xmlns:xlink="http://www.w3.org/1999/xlink">
<g id="graph0" class="graph" transform="scale(1 1) rotate(0) translate(4 138)">
<title>Matrix::filter</title>
<!-- Node74 -->
<g id="node1" class="node">
<title>Node74</title>
<polygon fill="#bfbfbf" stroke="#000000" points="0,-57.5 0,-76.5 77,-76.5 77,-57.5 0,-57.5"/>
<text text-anchor="middle" x="38.5" y="-64.5" font-family="Helvetica,sans-Serif" font-size="10.00" fill="#000000">Matrix::filter</text>
</g>
<!-- Node75 -->
<g id="node2" class="node">
<title>Node75</title>
<g id="a_node2"><a xlink:href="classMatrix.html#a978acd1635d3b39906fb359b64120eb1" target="_top" xlink:title="Matrix::nCols">
<polygon fill="none" stroke="#000000" points="127.5,-114.5 127.5,-133.5 207.5,-133.5 207.5,-114.5 127.5,-114.5"/>
<text text-anchor="middle" x="167.5" y="-121.5" font-family="Helvetica,sans-Serif" font-size="10.00" fill="#000000">Matrix::nCols</text>
</a>
</g>
</g>
<!-- Node74&#45;&gt;Node75 -->
<g id="edge1" class="edge">
<title>Node74&#45;&gt;Node75</title>
<path fill="none" stroke="#191970" d="M55.642,-76.5889C70.5403,-84.7167 92.8369,-96.3905 113,-105 117.8294,-107.0621 122.9655,-109.0762 128.0803,-110.9755"/>
<polygon fill="#191970" stroke="#191970" points="127.2093,-114.3816 137.8038,-114.4689 129.5761,-107.7938 127.2093,-114.3816"/>
</g>
<!-- Node76 -->
<g id="node3" class="node">
<title>Node76</title>
<g id="a_node3"><a xlink:href="classMatrix.html#ad654d350a6c4831500016c403756cb88" target="_top" xlink:title="Matrix::nRows">
<polygon fill="none" stroke="#000000" points="124.5,-76.5 124.5,-95.5 210.5,-95.5 210.5,-76.5 124.5,-76.5"/>
<text text-anchor="middle" x="167.5" y="-83.5" font-family="Helvetica,sans-Serif" font-size="10.00" fill="#000000">Matrix::nRows</text>
</a>
</g>
</g>
<!-- Node74&#45;&gt;Node76 -->
<g id="edge2" class="edge">
<title>Node74&#45;&gt;Node76</title>
<path fill="none" stroke="#191970" d="M77.2043,-72.7006C88.8002,-74.4086 101.7281,-76.3127 114.0948,-78.1341"/>
<polygon fill="#191970" stroke="#191970" points="113.9061,-81.644 124.3094,-79.6386 114.9262,-74.7187 113.9061,-81.644"/>
</g>
<!-- Node77 -->
<g id="node4" class="node">
<title>Node77</title>
<g id="a_node4"><a xlink:href="classMatrix.html#ac28a0846518ca104d36de2242bf1cc6e" target="_top" xlink:title="Adds a column at the end of the matrix. ">
<polygon fill="none" stroke="#000000" points="113,-38.5 113,-57.5 222,-57.5 222,-38.5 113,-38.5"/>
<text text-anchor="middle" x="167.5" y="-45.5" font-family="Helvetica,sans-Serif" font-size="10.00" fill="#000000">Matrix::addColumn</text>
</a>
</g>
</g>
<!-- Node74&#45;&gt;Node77 -->
<g id="edge3" class="edge">
<title>Node74&#45;&gt;Node77</title>
<path fill="none" stroke="#191970" d="M77.2043,-61.2994C85.2055,-60.1209 93.8408,-58.849 102.4884,-57.5754"/>
<polygon fill="#191970" stroke="#191970" points="103.225,-61.0047 112.6083,-56.0848 102.205,-54.0794 103.225,-61.0047"/>
</g>
<!-- Node78 -->
<g id="node5" class="node">
<title>Node78</title>
<g id="a_node5"><a xlink:href="classMatrix.html#a10cf85a4d92ee5071f863c3b1a5c7855" target="_top" xlink:title="Adds a row at the end of the matrix. ">
<polygon fill="none" stroke="#000000" points="121.5,-.5 121.5,-19.5 213.5,-19.5 213.5,-.5 121.5,-.5"/>
<text text-anchor="middle" x="167.5" y="-7.5" font-family="Helvetica,sans-Serif" font-size="10.00" fill="#000000">Matrix::addRow</text>
</a>
</g>
</g>
<!-- Node74&#45;&gt;Node78 -->
<g id="edge4" class="edge">
<title>Node74&#45;&gt;Node78</title>
<path fill="none" stroke="#191970" d="M55.642,-57.4111C70.5403,-49.2833 92.8369,-37.6095 113,-29 117.8294,-26.9379 122.9655,-24.9238 128.0803,-23.0245"/>
<polygon fill="#191970" stroke="#191970" points="129.5761,-26.2062 137.8038,-19.5311 127.2093,-19.6184 129.5761,-26.2062"/>
</g>
</g>
</svg>
