<?xml version="1.0" encoding="UTF-8" standalone="no"?>
<!DOCTYPE svg PUBLIC "-//W3C//DTD SVG 1.1//EN"
 "http://www.w3.org/Graphics/SVG/1.1/DTD/svg11.dtd">
<!-- Generated by graphviz version 2.40.1 (20161225.0304)
 -->
<!-- Title: Matrix::addColumn Pages: 1 -->
<svg width="350pt" height="66pt"
 viewBox="0.00 0.00 350.00 66.00" xmlns="http://www.w3.org/2000/svg" xmlns:xlink="http://www.w3.org/1999/xlink">
<g id="graph0" class="graph" transform="scale(1 1) rotate(0) translate(4 62)">
<title>Matrix::addColumn</title>
<!-- Node11 -->
<g id="node1" class="node">
<title>Node11</title>
<polygon fill="#bfbfbf" stroke="#000000" points="0,-19.5 0,-38.5 109,-38.5 109,-19.5 0,-19.5"/>
<text text-anchor="middle" x="54.5" y="-26.5" font-family="Helvetica,sans-Serif" font-size="10.00" fill="#000000">Matrix::addColumn</text>
</g>
<!-- Node12 -->
<g id="node2" class="node">
<title>Node12</title>
<g id="a_node2"><a xlink:href="classMatrix.html#a405b443e7b0a3be4f36d7d61b7b94798" target="_top" xlink:title="Counts occurrences of elements in a matrix. ">
<polygon fill="none" stroke="#000000" points="145,-38.5 145,-57.5 225,-57.5 225,-38.5 145,-38.5"/>
<text text-anchor="middle" x="185" y="-45.5" font-family="Helvetica,sans-Serif" font-size="10.00" fill="#000000">Matrix::count</text>
</a>
</g>
</g>
<!-- Node11&#45;&gt;Node12 -->
<g id="edge1" class="edge">
<title>Node11&#45;&gt;Node12</title>
<path fill="none" stroke="#191970" d="M119.0189,-38.3936C127.8524,-39.6797 136.7039,-40.9684 144.9255,-42.1654"/>
<polygon fill="#191970" stroke="#191970" points="119.4876,-34.925 109.0876,-36.9476 118.479,-41.8519 119.4876,-34.925"/>
</g>
<!-- Node14 -->
<g id="node4" class="node">
<title>Node14</title>
<g id="a_node4"><a xlink:href="classMatrix.html#ab734c3f274f16439a0075b09722768b0" target="_top" xlink:title="Selects a subset of either columns or rows of the matrix. ">
<polygon fill="none" stroke="#000000" points="146.5,-.5 146.5,-19.5 223.5,-19.5 223.5,-.5 146.5,-.5"/>
<text text-anchor="middle" x="185" y="-7.5" font-family="Helvetica,sans-Serif" font-size="10.00" fill="#000000">Matrix::filter</text>
</a>
</g>
</g>
<!-- Node11&#45;&gt;Node14 -->
<g id="edge3" class="edge">
<title>Node11&#45;&gt;Node14</title>
<path fill="none" stroke="#191970" d="M119.1845,-19.5823C128.5286,-18.2219 137.8881,-16.8592 146.4965,-15.6059"/>
<polygon fill="#191970" stroke="#191970" points="118.479,-16.1481 109.0876,-21.0524 119.4876,-23.075 118.479,-16.1481"/>
</g>
<!-- Node13 -->
<g id="node3" class="node">
<title>Node13</title>
<g id="a_node3"><a xlink:href="classMatrix.html#acaed37ff28cc308913f2b26fd5a48940" target="_top" xlink:title="Calculates means of a matrix, grouped by classes. ">
<polygon fill="none" stroke="#000000" points="261,-38.5 261,-57.5 342,-57.5 342,-38.5 261,-38.5"/>
<text text-anchor="middle" x="301.5" y="-45.5" font-family="Helvetica,sans-Serif" font-size="10.00" fill="#000000">Matrix::mean</text>
</a>
</g>
</g>
<!-- Node12&#45;&gt;Node13 -->
<g id="edge2" class="edge">
<title>Node12&#45;&gt;Node13</title>
<path fill="none" stroke="#191970" d="M235.3544,-48C243.9027,-48 252.6822,-48 260.9379,-48"/>
<polygon fill="#191970" stroke="#191970" points="235.0927,-44.5001 225.0927,-48 235.0927,-51.5001 235.0927,-44.5001"/>
</g>
</g>
</svg>
