<?xml version="1.0" encoding="UTF-8" standalone="no"?>
<!DOCTYPE svg PUBLIC "-//W3C//DTD SVG 1.1//EN"
 "http://www.w3.org/Graphics/SVG/1.1/DTD/svg11.dtd">
<!-- Generated by graphviz version 2.40.1 (20161225.0304)
 -->
<!-- Title: Matrix::getRow Pages: 1 -->
<svg width="291pt" height="66pt"
 viewBox="0.00 0.00 291.00 66.00" xmlns="http://www.w3.org/2000/svg" xmlns:xlink="http://www.w3.org/1999/xlink">
<g id="graph0" class="graph" transform="scale(1 1) rotate(0) translate(4 62)">
<title>Matrix::getRow</title>
<!-- Node90 -->
<g id="node1" class="node">
<title>Node90</title>
<polygon fill="#bfbfbf" stroke="#000000" points="0,-19.5 0,-38.5 90,-38.5 90,-19.5 0,-19.5"/>
<text text-anchor="middle" x="45" y="-26.5" font-family="Helvetica,sans-Serif" font-size="10.00" fill="#000000">Matrix::getRow</text>
</g>
<!-- Node91 -->
<g id="node2" class="node">
<title>Node91</title>
<g id="a_node2"><a xlink:href="classMatrix.html#aa494447ecb454d0486c8462fb2ba9741" target="_top" xlink:title="Matrix::BetweenClassScatter">
<polygon fill="none" stroke="#000000" points="126,-38.5 126,-57.5 283,-57.5 283,-38.5 126,-38.5"/>
<text text-anchor="middle" x="204.5" y="-45.5" font-family="Helvetica,sans-Serif" font-size="10.00" fill="#000000">Matrix::BetweenClassScatter</text>
</a>
</g>
</g>
<!-- Node90&#45;&gt;Node91 -->
<g id="edge1" class="edge">
<title>Node90&#45;&gt;Node91</title>
<path fill="none" stroke="#191970" d="M100.4688,-35.6076C108.6976,-36.5878 117.3077,-37.6135 125.8999,-38.637"/>
<polygon fill="#191970" stroke="#191970" points="100.6235,-32.1013 90.2797,-34.3938 99.7954,-39.0522 100.6235,-32.1013"/>
</g>
<!-- Node92 -->
<g id="node3" class="node">
<title>Node92</title>
<g id="a_node3"><a xlink:href="classMatrix.html#aa99cdbb65487d9db3ad1793593cb8b38" target="_top" xlink:title="Matrix::oneHot">
<polygon fill="none" stroke="#000000" points="160,-.5 160,-19.5 249,-19.5 249,-.5 160,-.5"/>
<text text-anchor="middle" x="204.5" y="-7.5" font-family="Helvetica,sans-Serif" font-size="10.00" fill="#000000">Matrix::oneHot</text>
</a>
</g>
</g>
<!-- Node90&#45;&gt;Node92 -->
<g id="edge2" class="edge">
<title>Node90&#45;&gt;Node92</title>
<path fill="none" stroke="#191970" d="M100.2536,-22.4181C119.7579,-20.0947 141.4272,-17.5134 159.9345,-15.3087"/>
<polygon fill="#191970" stroke="#191970" points="99.7954,-18.9478 90.2797,-23.6062 100.6235,-25.8987 99.7954,-18.9478"/>
</g>
</g>
</svg>
