<?xml version="1.0" encoding="UTF-8" standalone="no"?>
<!DOCTYPE svg PUBLIC "-//W3C//DTD SVG 1.1//EN"
 "http://www.w3.org/Graphics/SVG/1.1/DTD/svg11.dtd">
<!-- Generated by graphviz version 2.40.1 (20161225.0304)
 -->
<!-- Title: Matrix::BetweenClassScatter Pages: 1 -->
<svg width="302pt" height="142pt"
 viewBox="0.00 0.00 302.00 142.00" xmlns="http://www.w3.org/2000/svg" xmlns:xlink="http://www.w3.org/1999/xlink">
<g id="graph0" class="graph" transform="scale(1 1) rotate(0) translate(4 138)">
<title>Matrix::BetweenClassScatter</title>
<!-- Node31 -->
<g id="node1" class="node">
<title>Node31</title>
<polygon fill="#bfbfbf" stroke="#000000" points="0,-57.5 0,-76.5 157,-76.5 157,-57.5 0,-57.5"/>
<text text-anchor="middle" x="78.5" y="-64.5" font-family="Helvetica,sans-Serif" font-size="10.00" fill="#000000">Matrix::BetweenClassScatter</text>
</g>
<!-- Node32 -->
<g id="node2" class="node">
<title>Node32</title>
<g id="a_node2"><a xlink:href="classMatrix.html#adfeed67f10fb811c2fc268d8d4a8df60" target="_top" xlink:title="Returns only unique values from the matrix. ">
<polygon fill="none" stroke="#000000" points="200.5,-114.5 200.5,-133.5 286.5,-133.5 286.5,-114.5 200.5,-114.5"/>
<text text-anchor="middle" x="243.5" y="-121.5" font-family="Helvetica,sans-Serif" font-size="10.00" fill="#000000">Matrix::unique</text>
</a>
</g>
</g>
<!-- Node31&#45;&gt;Node32 -->
<g id="edge1" class="edge">
<title>Node31&#45;&gt;Node32</title>
<path fill="none" stroke="#191970" d="M106.1173,-76.5405C133.482,-85.9938 175.5901,-100.5402 205.9756,-111.037"/>
<polygon fill="#191970" stroke="#191970" points="205.1979,-114.4713 215.7926,-114.4284 207.4835,-107.8549 205.1979,-114.4713"/>
</g>
<!-- Node33 -->
<g id="node3" class="node">
<title>Node33</title>
<g id="a_node3"><a xlink:href="classMatrix.html#ad654d350a6c4831500016c403756cb88" target="_top" xlink:title="Matrix::nRows">
<polygon fill="none" stroke="#000000" points="200.5,-76.5 200.5,-95.5 286.5,-95.5 286.5,-76.5 200.5,-76.5"/>
<text text-anchor="middle" x="243.5" y="-83.5" font-family="Helvetica,sans-Serif" font-size="10.00" fill="#000000">Matrix::nRows</text>
</a>
</g>
</g>
<!-- Node31&#45;&gt;Node33 -->
<g id="edge2" class="edge">
<title>Node31&#45;&gt;Node33</title>
<path fill="none" stroke="#191970" d="M157.1341,-76.0548C168.4562,-77.3586 179.8756,-78.6736 190.5369,-79.9012"/>
<polygon fill="#191970" stroke="#191970" points="190.1635,-83.3813 200.4983,-81.0483 190.9643,-76.4272 190.1635,-83.3813"/>
</g>
<!-- Node34 -->
<g id="node4" class="node">
<title>Node34</title>
<g id="a_node4"><a xlink:href="classMatrix.html#af978e19d62fb06e0347af34c753f4efb" target="_top" xlink:title="Gets a row from the matrix. ">
<polygon fill="none" stroke="#000000" points="198.5,-38.5 198.5,-57.5 288.5,-57.5 288.5,-38.5 198.5,-38.5"/>
<text text-anchor="middle" x="243.5" y="-45.5" font-family="Helvetica,sans-Serif" font-size="10.00" fill="#000000">Matrix::getRow</text>
</a>
</g>
</g>
<!-- Node31&#45;&gt;Node34 -->
<g id="edge3" class="edge">
<title>Node31&#45;&gt;Node34</title>
<path fill="none" stroke="#191970" d="M157.1341,-57.9452C167.6067,-56.7392 178.1626,-55.5237 188.1247,-54.3765"/>
<polygon fill="#191970" stroke="#191970" points="188.7291,-57.8302 198.263,-53.2091 187.9282,-50.8761 188.7291,-57.8302"/>
</g>
<!-- Node35 -->
<g id="node5" class="node">
<title>Node35</title>
<g id="a_node5"><a xlink:href="classMatrix.html#a210a51aab56f8f5a1abdafa4ae0068b8" target="_top" xlink:title="Returns the transpose of a matrix. ">
<polygon fill="none" stroke="#000000" points="193,-.5 193,-19.5 294,-19.5 294,-.5 193,-.5"/>
<text text-anchor="middle" x="243.5" y="-7.5" font-family="Helvetica,sans-Serif" font-size="10.00" fill="#000000">Matrix::transpose</text>
</a>
</g>
</g>
<!-- Node31&#45;&gt;Node35 -->
<g id="edge4" class="edge">
<title>Node31&#45;&gt;Node35</title>
<path fill="none" stroke="#191970" d="M106.1173,-57.4595C133.482,-48.0062 175.5901,-33.4598 205.9756,-22.963"/>
<polygon fill="#191970" stroke="#191970" points="207.4835,-26.1451 215.7926,-19.5716 205.1979,-19.5287 207.4835,-26.1451"/>
</g>
</g>
</svg>
