<?xml version="1.0" encoding="UTF-8" standalone="no"?>
<!DOCTYPE svg PUBLIC "-//W3C//DTD SVG 1.1//EN"
 "http://www.w3.org/Graphics/SVG/1.1/DTD/svg11.dtd">
<!-- Generated by graphviz version 2.40.1 (20161225.0304)
 -->
<!-- Title: Matrix::oneHot Pages: 1 -->
<svg width="234pt" height="104pt"
 viewBox="0.00 0.00 234.00 104.00" xmlns="http://www.w3.org/2000/svg" xmlns:xlink="http://www.w3.org/1999/xlink">
<g id="graph0" class="graph" transform="scale(1 1) rotate(0) translate(4 100)">
<title>Matrix::oneHot</title>
<!-- Node141 -->
<g id="node1" class="node">
<title>Node141</title>
<polygon fill="#bfbfbf" stroke="#000000" points="0,-38.5 0,-57.5 89,-57.5 89,-38.5 0,-38.5"/>
<text text-anchor="middle" x="44.5" y="-45.5" font-family="Helvetica,sans-Serif" font-size="10.00" fill="#000000">Matrix::oneHot</text>
</g>
<!-- Node142 -->
<g id="node2" class="node">
<title>Node142</title>
<g id="a_node2"><a xlink:href="classMatrix.html#af978e19d62fb06e0347af34c753f4efb" target="_top" xlink:title="Gets a row from the matrix. ">
<polygon fill="none" stroke="#000000" points="130.5,-76.5 130.5,-95.5 220.5,-95.5 220.5,-76.5 130.5,-76.5"/>
<text text-anchor="middle" x="175.5" y="-83.5" font-family="Helvetica,sans-Serif" font-size="10.00" fill="#000000">Matrix::getRow</text>
</a>
</g>
</g>
<!-- Node141&#45;&gt;Node142 -->
<g id="edge1" class="edge">
<title>Node141&#45;&gt;Node142</title>
<path fill="none" stroke="#191970" d="M77.5568,-57.589C94.3125,-62.4494 114.8577,-68.4091 132.7965,-73.6127"/>
<polygon fill="#191970" stroke="#191970" points="131.8745,-76.9895 142.4537,-76.4141 133.8247,-70.2666 131.8745,-76.9895"/>
</g>
<!-- Node143 -->
<g id="node3" class="node">
<title>Node143</title>
<g id="a_node3"><a xlink:href="classMatrix.html#aa4169e72114ea8113de2f02bbb2566fd" target="_top" xlink:title="Matrix::setRow">
<polygon fill="none" stroke="#000000" points="131,-38.5 131,-57.5 220,-57.5 220,-38.5 131,-38.5"/>
<text text-anchor="middle" x="175.5" y="-45.5" font-family="Helvetica,sans-Serif" font-size="10.00" fill="#000000">Matrix::setRow</text>
</a>
</g>
</g>
<!-- Node141&#45;&gt;Node143 -->
<g id="edge2" class="edge">
<title>Node141&#45;&gt;Node143</title>
<path fill="none" stroke="#191970" d="M89.2164,-48C99.3338,-48 110.1893,-48 120.6703,-48"/>
<polygon fill="#191970" stroke="#191970" points="120.9852,-51.5001 130.9852,-48 120.9851,-44.5001 120.9852,-51.5001"/>
</g>
<!-- Node144 -->
<g id="node4" class="node">
<title>Node144</title>
<g id="a_node4"><a xlink:href="classMatrix.html#a210a51aab56f8f5a1abdafa4ae0068b8" target="_top" xlink:title="Returns the transpose of a matrix. ">
<polygon fill="none" stroke="#000000" points="125,-.5 125,-19.5 226,-19.5 226,-.5 125,-.5"/>
<text text-anchor="middle" x="175.5" y="-7.5" font-family="Helvetica,sans-Serif" font-size="10.00" fill="#000000">Matrix::transpose</text>
</a>
</g>
</g>
<!-- Node141&#45;&gt;Node144 -->
<g id="edge3" class="edge">
<title>Node141&#45;&gt;Node144</title>
<path fill="none" stroke="#191970" d="M77.5568,-38.411C94.3125,-33.5506 114.8577,-27.5909 132.7965,-22.3873"/>
<polygon fill="#191970" stroke="#191970" points="133.8247,-25.7334 142.4537,-19.5859 131.8745,-19.0105 133.8247,-25.7334"/>
</g>
</g>
</svg>
