<?xml version="1.0" encoding="UTF-8" standalone="no"?>
<!DOCTYPE svg PUBLIC "-//W3C//DTD SVG 1.1//EN"
 "http://www.w3.org/Graphics/SVG/1.1/DTD/svg11.dtd">
<!-- Generated by graphviz version 2.40.1 (20161225.0304)
 -->
<!-- Title: Matrix::transpose Pages: 1 -->
<svg width="484pt" height="180pt"
 viewBox="0.00 0.00 484.00 180.00" xmlns="http://www.w3.org/2000/svg" xmlns:xlink="http://www.w3.org/1999/xlink">
<g id="graph0" class="graph" transform="scale(1 1) rotate(0) translate(4 176)">
<title>Matrix::transpose</title>
<!-- Node213 -->
<g id="node1" class="node">
<title>Node213</title>
<polygon fill="#bfbfbf" stroke="#000000" points="0,-76.5 0,-95.5 101,-95.5 101,-76.5 0,-76.5"/>
<text text-anchor="middle" x="50.5" y="-83.5" font-family="Helvetica,sans-Serif" font-size="10.00" fill="#000000">Matrix::transpose</text>
</g>
<!-- Node214 -->
<g id="node2" class="node">
<title>Node214</title>
<g id="a_node2"><a xlink:href="classMatrix.html#a55d50d5e97a447502075ed807f4c1005" target="_top" xlink:title="Returns the adjugate of the current matrix, which is the transpose of its cofactor matrix...">
<polygon fill="none" stroke="#000000" points="167.5,-152.5 167.5,-171.5 263.5,-171.5 263.5,-152.5 167.5,-152.5"/>
<text text-anchor="middle" x="215.5" y="-159.5" font-family="Helvetica,sans-Serif" font-size="10.00" fill="#000000">Matrix::adjugate</text>
</a>
</g>
</g>
<!-- Node213&#45;&gt;Node214 -->
<g id="edge1" class="edge">
<title>Node213&#45;&gt;Node214</title>
<path fill="none" stroke="#191970" d="M70.0264,-101.7251C86.8567,-114.5538 112.2801,-132.2542 137,-143 146.516,-147.1366 157.0899,-150.4694 167.3148,-153.1173"/>
<polygon fill="#191970" stroke="#191970" points="72.099,-98.9031 62.0577,-95.5233 67.7996,-104.4273 72.099,-98.9031"/>
</g>
<!-- Node215 -->
<g id="node3" class="node">
<title>Node215</title>
<g id="a_node3"><a xlink:href="classMatrix.html#aaea066fd6a3972580cb7f9ccc3be5f38" target="_top" xlink:title="Calculates the scatter matrix. ">
<polygon fill="none" stroke="#000000" points="172,-114.5 172,-133.5 259,-133.5 259,-114.5 172,-114.5"/>
<text text-anchor="middle" x="215.5" y="-121.5" font-family="Helvetica,sans-Serif" font-size="10.00" fill="#000000">Matrix::scatter</text>
</a>
</g>
</g>
<!-- Node213&#45;&gt;Node215 -->
<g id="edge2" class="edge">
<title>Node213&#45;&gt;Node215</title>
<path fill="none" stroke="#191970" d="M102.154,-97.8961C125.3465,-103.2374 152.3383,-109.4537 174.1629,-114.4799"/>
<polygon fill="#191970" stroke="#191970" points="102.6669,-94.4226 92.1365,-95.589 101.0959,-101.2441 102.6669,-94.4226"/>
</g>
<!-- Node217 -->
<g id="node5" class="node">
<title>Node217</title>
<g id="a_node5"><a xlink:href="classMatrix.html#a849e1dd04769a720c20e9d7120bfa487" target="_top" xlink:title="Calculates the eigenvalues and eigenvectors of a symmetric matrix using the Jacobi eigenvalue algorit...">
<polygon fill="none" stroke="#000000" points="148.5,-76.5 148.5,-95.5 282.5,-95.5 282.5,-76.5 148.5,-76.5"/>
<text text-anchor="middle" x="215.5" y="-83.5" font-family="Helvetica,sans-Serif" font-size="10.00" fill="#000000">Matrix::eigenSymmetric</text>
</a>
</g>
</g>
<!-- Node213&#45;&gt;Node217 -->
<g id="edge4" class="edge">
<title>Node213&#45;&gt;Node217</title>
<path fill="none" stroke="#191970" d="M111.6772,-86C123.6468,-86 136.2594,-86 148.4096,-86"/>
<polygon fill="#191970" stroke="#191970" points="111.3518,-82.5001 101.3518,-86 111.3518,-89.5001 111.3518,-82.5001"/>
</g>
<!-- Node218 -->
<g id="node6" class="node">
<title>Node218</title>
<g id="a_node6"><a xlink:href="classMatrix.html#aa494447ecb454d0486c8462fb2ba9741" target="_top" xlink:title="Matrix::BetweenClassScatter">
<polygon fill="none" stroke="#000000" points="137,-38.5 137,-57.5 294,-57.5 294,-38.5 137,-38.5"/>
<text text-anchor="middle" x="215.5" y="-45.5" font-family="Helvetica,sans-Serif" font-size="10.00" fill="#000000">Matrix::BetweenClassScatter</text>
</a>
</g>
</g>
<!-- Node213&#45;&gt;Node218 -->
<g id="edge5" class="edge">
<title>Node213&#45;&gt;Node218</title>
<path fill="none" stroke="#191970" d="M102.154,-74.1039C125.3465,-68.7626 152.3383,-62.5463 174.1629,-57.5201"/>
<polygon fill="#191970" stroke="#191970" points="101.0959,-70.7559 92.1365,-76.411 102.6669,-77.5774 101.0959,-70.7559"/>
</g>
<!-- Node219 -->
<g id="node7" class="node">
<title>Node219</title>
<g id="a_node7"><a xlink:href="classMatrix.html#aa99cdbb65487d9db3ad1793593cb8b38" target="_top" xlink:title="Matrix::oneHot">
<polygon fill="none" stroke="#000000" points="171,-.5 171,-19.5 260,-19.5 260,-.5 171,-.5"/>
<text text-anchor="middle" x="215.5" y="-7.5" font-family="Helvetica,sans-Serif" font-size="10.00" fill="#000000">Matrix::oneHot</text>
</a>
</g>
</g>
<!-- Node213&#45;&gt;Node219 -->
<g id="edge6" class="edge">
<title>Node213&#45;&gt;Node219</title>
<path fill="none" stroke="#191970" d="M70.0264,-70.2749C86.8567,-57.4462 112.2801,-39.7458 137,-29 147.5448,-24.4162 159.3885,-20.8194 170.617,-18.0478"/>
<polygon fill="#191970" stroke="#191970" points="67.7996,-67.5727 62.0577,-76.4767 72.099,-73.0969 67.7996,-67.5727"/>
</g>
<!-- Node216 -->
<g id="node4" class="node">
<title>Node216</title>
<g id="a_node4"><a xlink:href="classMatrix.html#a5fd175e88fc60e7adf403e5c8f0f5670" target="_top" xlink:title="Matrix::WithinClassScatter">
<polygon fill="none" stroke="#000000" points="330,-114.5 330,-133.5 476,-133.5 476,-114.5 330,-114.5"/>
<text text-anchor="middle" x="403" y="-121.5" font-family="Helvetica,sans-Serif" font-size="10.00" fill="#000000">Matrix::WithinClassScatter</text>
</a>
</g>
</g>
<!-- Node215&#45;&gt;Node216 -->
<g id="edge3" class="edge">
<title>Node215&#45;&gt;Node216</title>
<path fill="none" stroke="#191970" d="M269.6224,-124C288.4426,-124 309.874,-124 329.9686,-124"/>
<polygon fill="#191970" stroke="#191970" points="269.4605,-120.5001 259.4604,-124 269.4604,-127.5001 269.4605,-120.5001"/>
</g>
</g>
</svg>
