<?xml version="1.0" encoding="UTF-8" standalone="no"?>
<!DOCTYPE svg PUBLIC "-//W3C//DTD SVG 1.1//EN"
 "http://www.w3.org/Graphics/SVG/1.1/DTD/svg11.dtd">
<!-- Generated by graphviz version 2.40.1 (20161225.0304)
 -->
<!-- Title: Matrix.hpp Pages: 1 -->
<svg width="1808pt" height="95pt"
 viewBox="0.00 0.00 1807.50 95.00" xmlns="http://www.w3.org/2000/svg" xmlns:xlink="http://www.w3.org/1999/xlink">
<g id="graph0" class="graph" transform="scale(1 1) rotate(0) translate(4 91)">
<title>Matrix.hpp</title>
<!-- Node0 -->
<g id="node1" class="node">
<title>Node0</title>
<polygon fill="#bfbfbf" stroke="#000000" points="837.5,-67.5 837.5,-86.5 905.5,-86.5 905.5,-67.5 837.5,-67.5"/>
<text text-anchor="middle" x="871.5" y="-74.5" font-family="Helvetica,sans-Serif" font-size="10.00" fill="#000000">Matrix.hpp</text>
</g>
<!-- Node1 -->
<g id="node2" class="node">
<title>Node1</title>
<polygon fill="none" stroke="#bfbfbf" points="0,-6 0,-25 47,-25 47,-6 0,-6"/>
<text text-anchor="middle" x="23.5" y="-13" font-family="Helvetica,sans-Serif" font-size="10.00" fill="#000000">vector</text>
</g>
<!-- Node0&#45;&gt;Node1 -->
<g id="edge1" class="edge">
<title>Node0&#45;&gt;Node1</title>
<path fill="none" stroke="#191970" d="M837.0537,-76.8537C701.7526,-76.0027 206.7567,-70.2175 55.5,-31 53.5281,-30.4887 51.5329,-29.8517 49.5531,-29.1299"/>
<polygon fill="#191970" stroke="#191970" points="50.5313,-25.7406 39.9621,-25.0031 47.7645,-32.1706 50.5313,-25.7406"/>
</g>
<!-- Node2 -->
<g id="node3" class="node">
<title>Node2</title>
<polygon fill="none" stroke="#bfbfbf" points="65,-6 65,-25 130,-25 130,-6 65,-6"/>
<text text-anchor="middle" x="97.5" y="-13" font-family="Helvetica,sans-Serif" font-size="10.00" fill="#000000">functional</text>
</g>
<!-- Node0&#45;&gt;Node2 -->
<g id="edge2" class="edge">
<title>Node0&#45;&gt;Node2</title>
<path fill="none" stroke="#191970" d="M837.2576,-76.2046C711.3781,-73.0708 274.5255,-60.2855 138.5,-31 135.3011,-30.3113 132.0201,-29.4166 128.7748,-28.4047"/>
<polygon fill="#191970" stroke="#191970" points="129.8587,-25.0761 119.2639,-25.1053 127.5645,-31.6895 129.8587,-25.0761"/>
</g>
<!-- Node3 -->
<g id="node4" class="node">
<title>Node3</title>
<polygon fill="none" stroke="#bfbfbf" points="148,-6 148,-25 213,-25 213,-6 148,-6"/>
<text text-anchor="middle" x="180.5" y="-13" font-family="Helvetica,sans-Serif" font-size="10.00" fill="#000000">stdexcept</text>
</g>
<!-- Node0&#45;&gt;Node3 -->
<g id="edge3" class="edge">
<title>Node0&#45;&gt;Node3</title>
<path fill="none" stroke="#191970" d="M837.2487,-75.849C720.9209,-71.7404 341.6197,-56.6574 222.5,-31 219.2328,-30.2963 215.8782,-29.3916 212.5578,-28.3735"/>
<polygon fill="#191970" stroke="#191970" points="213.4148,-24.9682 202.8204,-25.0656 211.1632,-31.5962 213.4148,-24.9682"/>
</g>
<!-- Node4 -->
<g id="node5" class="node">
<title>Node4</title>
<polygon fill="none" stroke="#bfbfbf" points="231.5,-6 231.5,-25 295.5,-25 295.5,-6 231.5,-6"/>
<text text-anchor="middle" x="263.5" y="-13" font-family="Helvetica,sans-Serif" font-size="10.00" fill="#000000">algorithm</text>
</g>
<!-- Node0&#45;&gt;Node4 -->
<g id="edge4" class="edge">
<title>Node0&#45;&gt;Node4</title>
<path fill="none" stroke="#191970" d="M837.1941,-75.4784C730.7325,-70.5581 406.9973,-54.0492 304.5,-31 301.3075,-30.2821 298.0308,-29.368 294.7881,-28.344"/>
<polygon fill="#191970" stroke="#191970" points="295.8757,-25.0166 285.2809,-25.0281 293.5704,-31.6261 295.8757,-25.0166"/>
</g>
<!-- Node5 -->
<g id="node6" class="node">
<title>Node5</title>
<polygon fill="none" stroke="#bfbfbf" points="313.5,-6 313.5,-25 373.5,-25 373.5,-6 313.5,-6"/>
<text text-anchor="middle" x="343.5" y="-13" font-family="Helvetica,sans-Serif" font-size="10.00" fill="#000000">iostream</text>
</g>
<!-- Node0&#45;&gt;Node5 -->
<g id="edge5" class="edge">
<title>Node0&#45;&gt;Node5</title>
<path fill="none" stroke="#191970" d="M837.2112,-75.0455C740.8887,-69.3533 469.2406,-51.8635 382.5,-31 379.7107,-30.3291 376.8568,-29.4979 374.0242,-28.5716"/>
<polygon fill="#191970" stroke="#191970" points="375.1943,-25.2729 364.6002,-25.1504 372.8056,-31.8528 375.1943,-25.2729"/>
</g>
<!-- Node6 -->
<g id="node7" class="node">
<title>Node6</title>
<polygon fill="none" stroke="#bfbfbf" points="391.5,-6 391.5,-25 447.5,-25 447.5,-6 391.5,-6"/>
<text text-anchor="middle" x="419.5" y="-13" font-family="Helvetica,sans-Serif" font-size="10.00" fill="#000000">iomanip</text>
</g>
<!-- Node0&#45;&gt;Node6 -->
<g id="edge6" class="edge">
<title>Node0&#45;&gt;Node6</title>
<path fill="none" stroke="#191970" d="M837.2147,-74.4696C751.2772,-67.9237 528.4265,-49.6381 456.5,-31 454.0224,-30.358 451.4936,-29.5809 448.9794,-28.7207"/>
<polygon fill="#191970" stroke="#191970" points="450.0848,-25.3964 439.4941,-25.1014 447.5893,-31.9364 450.0848,-25.3964"/>
</g>
<!-- Node7 -->
<g id="node8" class="node">
<title>Node7</title>
<polygon fill="none" stroke="#bfbfbf" points="466,-6 466,-25 513,-25 513,-6 466,-6"/>
<text text-anchor="middle" x="489.5" y="-13" font-family="Helvetica,sans-Serif" font-size="10.00" fill="#000000">cmath</text>
</g>
<!-- Node0&#45;&gt;Node7 -->
<g id="edge7" class="edge">
<title>Node0&#45;&gt;Node7</title>
<path fill="none" stroke="#191970" d="M837.0918,-75.9584C773.6566,-73.2767 634.5171,-63.8281 522.5,-31 520.5866,-30.4393 518.6445,-29.7818 516.7096,-29.06"/>
<polygon fill="#191970" stroke="#191970" points="517.8364,-25.7364 507.2629,-25.0637 515.109,-32.1833 517.8364,-25.7364"/>
</g>
<!-- Node8 -->
<g id="node9" class="node">
<title>Node8</title>
<polygon fill="none" stroke="#bfbfbf" points="531.5,-6 531.5,-25 563.5,-25 563.5,-6 531.5,-6"/>
<text text-anchor="middle" x="547.5" y="-13" font-family="Helvetica,sans-Serif" font-size="10.00" fill="#000000">set</text>
</g>
<!-- Node0&#45;&gt;Node8 -->
<g id="edge8" class="edge">
<title>Node0&#45;&gt;Node8</title>
<path fill="none" stroke="#191970" d="M837.3639,-73.4873C769.6377,-66.2346 620.6586,-48.7882 572.5,-31 571.6198,-30.6749 570.7371,-30.3166 569.8568,-29.9315"/>
<polygon fill="#191970" stroke="#191970" points="571.2134,-26.6885 560.742,-25.0758 567.9222,-32.8666 571.2134,-26.6885"/>
</g>
<!-- Node9 -->
<g id="node10" class="node">
<title>Node9</title>
<polygon fill="none" stroke="#bfbfbf" points="582,-6 582,-25 641,-25 641,-6 582,-6"/>
<text text-anchor="middle" x="611.5" y="-13" font-family="Helvetica,sans-Serif" font-size="10.00" fill="#000000">complex</text>
</g>
<!-- Node0&#45;&gt;Node9 -->
<g id="edge9" class="edge">
<title>Node0&#45;&gt;Node9</title>
<path fill="none" stroke="#191970" d="M837.348,-71.779C793.5321,-64.6527 715.4342,-50.5013 650.5,-31 648.0577,-30.2665 645.5542,-29.4439 643.0519,-28.5701"/>
<polygon fill="#191970" stroke="#191970" points="644.1316,-25.2374 633.5388,-25.0277 641.6888,-31.7974 644.1316,-25.2374"/>
</g>
<!-- Node10 -->
<g id="node11" class="node">
<title>Node10</title>
<polygon fill="none" stroke="#bfbfbf" points="659.5,-6 659.5,-25 757.5,-25 757.5,-6 659.5,-6"/>
<text text-anchor="middle" x="708.5" y="-13" font-family="Helvetica,sans-Serif" font-size="10.00" fill="#000000">include/nr3/nr3.h</text>
</g>
<!-- Node0&#45;&gt;Node10 -->
<g id="edge10" class="edge">
<title>Node0&#45;&gt;Node10</title>
<path fill="none" stroke="#191970" d="M846.0313,-67.3906C818.3995,-56.9652 774.1131,-40.2559 743.2872,-28.6252"/>
<polygon fill="#191970" stroke="#191970" points="744.3817,-25.2974 733.7899,-25.0419 741.9106,-31.8467 744.3817,-25.2974"/>
</g>
<!-- Node11 -->
<g id="node12" class="node">
<title>Node11</title>
<polygon fill="none" stroke="#bfbfbf" points="776,-6 776,-25 831,-25 831,-6 776,-6"/>
<text text-anchor="middle" x="803.5" y="-13" font-family="Helvetica,sans-Serif" font-size="10.00" fill="#000000">fstream</text>
</g>
<!-- Node0&#45;&gt;Node11 -->
<g id="edge11" class="edge">
<title>Node0&#45;&gt;Node11</title>
<path fill="none" stroke="#191970" d="M860.875,-67.3906C850.4569,-57.9683 834.3636,-43.4134 821.8696,-32.1137"/>
<polygon fill="#191970" stroke="#191970" points="824.0392,-29.3568 814.2748,-25.2449 819.3438,-34.5484 824.0392,-29.3568"/>
</g>
<!-- Node12 -->
<g id="node13" class="node">
<title>Node12</title>
<polygon fill="none" stroke="#bfbfbf" points="849.5,-6 849.5,-25 893.5,-25 893.5,-6 849.5,-6"/>
<text text-anchor="middle" x="871.5" y="-13" font-family="Helvetica,sans-Serif" font-size="10.00" fill="#000000">limits</text>
</g>
<!-- Node0&#45;&gt;Node12 -->
<g id="edge12" class="edge">
<title>Node0&#45;&gt;Node12</title>
<path fill="none" stroke="#191970" d="M871.5,-67.3906C871.5,-58.8657 871.5,-46.1392 871.5,-35.4235"/>
<polygon fill="#191970" stroke="#191970" points="875.0001,-35.2448 871.5,-25.2449 868.0001,-35.2449 875.0001,-35.2448"/>
</g>
<!-- Node13 -->
<g id="node14" class="node">
<title>Node13</title>
<polygon fill="none" stroke="#bfbfbf" points="912,-6 912,-25 965,-25 965,-6 912,-6"/>
<text text-anchor="middle" x="938.5" y="-13" font-family="Helvetica,sans-Serif" font-size="10.00" fill="#000000">stdlib.h</text>
</g>
<!-- Node0&#45;&gt;Node13 -->
<g id="edge13" class="edge">
<title>Node0&#45;&gt;Node13</title>
<path fill="none" stroke="#191970" d="M881.9688,-67.3906C892.2337,-57.9683 908.0903,-43.4134 920.4006,-32.1137"/>
<polygon fill="#191970" stroke="#191970" points="922.8834,-34.5856 927.8837,-25.2449 918.1499,-29.4287 922.8834,-34.5856"/>
</g>
<!-- Node14 -->
<g id="node15" class="node">
<title>Node14</title>
<polygon fill="none" stroke="#bfbfbf" points="983.5,-6 983.5,-25 1033.5,-25 1033.5,-6 983.5,-6"/>
<text text-anchor="middle" x="1008.5" y="-13" font-family="Helvetica,sans-Serif" font-size="10.00" fill="#000000">stdio.h</text>
</g>
<!-- Node0&#45;&gt;Node14 -->
<g id="edge14" class="edge">
<title>Node0&#45;&gt;Node14</title>
<path fill="none" stroke="#191970" d="M893.2235,-67.3565C914.0838,-58.0824 946.4739,-43.6463 974.5,-31 975.6974,-30.4597 976.9181,-29.9079 978.151,-29.3498"/>
<polygon fill="#191970" stroke="#191970" points="979.996,-32.3559 987.6537,-25.0341 977.1014,-25.9824 979.996,-32.3559"/>
</g>
<!-- Node15 -->
<g id="node16" class="node">
<title>Node15</title>
<polygon fill="none" stroke="#bfbfbf" points="1051.5,-6 1051.5,-25 1099.5,-25 1099.5,-6 1051.5,-6"/>
<text text-anchor="middle" x="1075.5" y="-13" font-family="Helvetica,sans-Serif" font-size="10.00" fill="#000000">time.h</text>
</g>
<!-- Node0&#45;&gt;Node15 -->
<g id="edge15" class="edge">
<title>Node0&#45;&gt;Node15</title>
<path fill="none" stroke="#191970" d="M905.7919,-69.6536C940.7149,-61.7375 996.1652,-47.9634 1042.5,-31 1044.0937,-30.4165 1045.7156,-29.7853 1047.3422,-29.1226"/>
<polygon fill="#191970" stroke="#191970" points="1048.7872,-32.3108 1056.548,-25.0983 1045.9833,-25.8969 1048.7872,-32.3108"/>
</g>
<!-- Node16 -->
<g id="node17" class="node">
<title>Node16</title>
<polygon fill="none" stroke="#bfbfbf" points="1118,-6 1118,-25 1165,-25 1165,-6 1118,-6"/>
<text text-anchor="middle" x="1141.5" y="-13" font-family="Helvetica,sans-Serif" font-size="10.00" fill="#000000">fcntl.h</text>
</g>
<!-- Node0&#45;&gt;Node16 -->
<g id="edge16" class="edge">
<title>Node0&#45;&gt;Node16</title>
<path fill="none" stroke="#191970" d="M905.5253,-73.0861C952.1626,-67.119 1038.1717,-53.9484 1108.5,-31 1110.3504,-30.3962 1112.2323,-29.7139 1114.1116,-28.9805"/>
<polygon fill="#191970" stroke="#191970" points="1115.5238,-32.1832 1123.3269,-25.0164 1112.7577,-25.7528 1115.5238,-32.1832"/>
</g>
<!-- Node17 -->
<g id="node18" class="node">
<title>Node17</title>
<polygon fill="none" stroke="#bfbfbf" points="1183,-6 1183,-25 1236,-25 1236,-6 1183,-6"/>
<text text-anchor="middle" x="1209.5" y="-13" font-family="Helvetica,sans-Serif" font-size="10.00" fill="#000000">string.h</text>
</g>
<!-- Node0&#45;&gt;Node17 -->
<g id="edge17" class="edge">
<title>Node0&#45;&gt;Node17</title>
<path fill="none" stroke="#191970" d="M905.7645,-74.7781C962.5917,-70.4364 1079.4934,-58.709 1174.5,-31 1176.6253,-30.3802 1178.7901,-29.6592 1180.9482,-28.8739"/>
<polygon fill="#191970" stroke="#191970" points="1182.2579,-32.1196 1190.2229,-25.1333 1179.6396,-25.6277 1182.2579,-32.1196"/>
</g>
<!-- Node18 -->
<g id="node19" class="node">
<title>Node18</title>
<polygon fill="none" stroke="#bfbfbf" points="1254,-6 1254,-25 1307,-25 1307,-6 1254,-6"/>
<text text-anchor="middle" x="1280.5" y="-13" font-family="Helvetica,sans-Serif" font-size="10.00" fill="#000000">ctype.h</text>
</g>
<!-- Node0&#45;&gt;Node18 -->
<g id="edge18" class="edge">
<title>Node0&#45;&gt;Node18</title>
<path fill="none" stroke="#191970" d="M905.6739,-76.1431C972.2482,-73.7461 1123.4866,-64.7208 1245.5,-31 1247.6859,-30.3959 1249.9109,-29.6774 1252.1258,-28.8858"/>
<polygon fill="#191970" stroke="#191970" points="1253.6425,-32.0485 1261.6186,-25.0749 1251.0346,-25.5524 1253.6425,-32.0485"/>
</g>
<!-- Node19 -->
<g id="node20" class="node">
<title>Node19</title>
<polygon fill="none" stroke="#bfbfbf" points="1325.5,-6 1325.5,-25 1473.5,-25 1473.5,-6 1325.5,-6"/>
<text text-anchor="middle" x="1399.5" y="-13" font-family="Helvetica,sans-Serif" font-size="10.00" fill="#000000">include/nr3/eigen_unsym.h</text>
</g>
<!-- Node0&#45;&gt;Node19 -->
<g id="edge19" class="edge">
<title>Node0&#45;&gt;Node19</title>
<path fill="none" stroke="#191970" d="M905.6722,-74.4246C980.4103,-68.5824 1163.9194,-53.0956 1316.5,-31 1324.8418,-29.792 1333.6236,-28.3447 1342.2269,-26.8265"/>
<polygon fill="#191970" stroke="#191970" points="1342.9898,-30.2454 1352.2074,-25.0219 1341.7442,-23.3571 1342.9898,-30.2454"/>
</g>
<!-- Node20 -->
<g id="node21" class="node">
<title>Node20</title>
<polygon fill="none" stroke="#bfbfbf" points="1491.5,-.5 1491.5,-30.5 1599.5,-30.5 1599.5,-.5 1491.5,-.5"/>
<text text-anchor="start" x="1499.5" y="-18.5" font-family="Helvetica,sans-Serif" font-size="10.00" fill="#000000">include/csv_reader</text>
<text text-anchor="middle" x="1545.5" y="-7.5" font-family="Helvetica,sans-Serif" font-size="10.00" fill="#000000">/CSVReader.hpp</text>
</g>
<!-- Node0&#45;&gt;Node20 -->
<g id="edge20" class="edge">
<title>Node0&#45;&gt;Node20</title>
<path fill="none" stroke="#191970" d="M905.5104,-76.4167C997.1272,-74.4265 1256.7678,-66.0239 1481.3295,-31.0147"/>
<polygon fill="#191970" stroke="#191970" points="1481.9897,-34.4539 1491.3207,-29.4357 1480.8969,-27.5397 1481.9897,-34.4539"/>
</g>
<!-- Node21 -->
<g id="node22" class="node">
<title>Node21</title>
<polygon fill="none" stroke="#bfbfbf" points="1617.5,-6 1617.5,-25 1663.5,-25 1663.5,-6 1617.5,-6"/>
<text text-anchor="middle" x="1640.5" y="-13" font-family="Helvetica,sans-Serif" font-size="10.00" fill="#000000">cstdio</text>
</g>
<!-- Node0&#45;&gt;Node21 -->
<g id="edge21" class="edge">
<title>Node0&#45;&gt;Node21</title>
<path fill="none" stroke="#191970" d="M905.5892,-76.6171C1031.9153,-74.9284 1473.0305,-66.5598 1608.5,-31 1610.4255,-30.4946 1612.3738,-29.8705 1614.3085,-29.1657"/>
<polygon fill="#191970" stroke="#191970" points="1615.8853,-32.2979 1623.7006,-25.1444 1613.1302,-25.8629 1615.8853,-32.2979"/>
</g>
<!-- Node22 -->
<g id="node23" class="node">
<title>Node22</title>
<polygon fill="none" stroke="#bfbfbf" points="1681.5,-6 1681.5,-25 1725.5,-25 1725.5,-6 1681.5,-6"/>
<text text-anchor="middle" x="1703.5" y="-13" font-family="Helvetica,sans-Serif" font-size="10.00" fill="#000000">string</text>
</g>
<!-- Node0&#45;&gt;Node22 -->
<g id="edge22" class="edge">
<title>Node0&#45;&gt;Node22</title>
<path fill="none" stroke="#191970" d="M905.7819,-76.8682C1039.3018,-76.0717 1524.4489,-70.4651 1672.5,-31 1674.4187,-30.4885 1676.3578,-29.8514 1678.2803,-29.1294"/>
<polygon fill="#191970" stroke="#191970" points="1679.8603,-32.2575 1687.5813,-25.0025 1677.0212,-25.8591 1679.8603,-32.2575"/>
</g>
<!-- Node23 -->
<g id="node24" class="node">
<title>Node23</title>
<polygon fill="none" stroke="#bfbfbf" points="1743.5,-6 1743.5,-25 1799.5,-25 1799.5,-6 1743.5,-6"/>
<text text-anchor="middle" x="1771.5" y="-13" font-family="Helvetica,sans-Serif" font-size="10.00" fill="#000000">sstream</text>
</g>
<!-- Node0&#45;&gt;Node23 -->
<g id="edge23" class="edge">
<title>Node0&#45;&gt;Node23</title>
<path fill="none" stroke="#191970" d="M905.9439,-76.7342C1045.9639,-75.4119 1572.7022,-68.0282 1734.5,-31 1737.1456,-30.3945 1739.8431,-29.6143 1742.5154,-28.7264"/>
<polygon fill="#191970" stroke="#191970" points="1743.8301,-31.9712 1751.9453,-25.1599 1741.3538,-25.4238 1743.8301,-31.9712"/>
</g>
</g>
</svg>
